<svg width="18" height="18" viewBox="0 0 18 18" fill="none" xmlns="http://www.w3.org/2000/svg">
<path d="M13.8746 17.9995H0V1.49995H10.8747C11.0817 1.49995 11.2497 1.66795 11.2497 1.87494C11.2497 2.08194 11.0817 2.24993 10.8747 2.24993H0.749977V17.2495H13.1246V8.99973C13.1246 8.79273 13.2926 8.62474 13.4996 8.62474C13.7066 8.62474 13.8746 8.79273 13.8746 8.99973V17.9995Z" fill="black"/>
<path d="M8.11362 10.2608C8.01612 10.2608 7.92013 10.2229 7.84813 10.1509C7.73413 10.0369 7.70563 9.86257 7.77763 9.7182L8.8381 7.59689C8.8561 7.56089 8.87972 7.5279 8.9086 7.4994L16.0683 0.340115C16.2906 0.117371 16.5617 0 16.8516 0C17.3065 0 17.7343 0.293991 17.9154 0.731228C18.0883 1.14896 17.9927 1.59745 17.6593 1.93082L10.5 9.0901C10.4715 9.1186 10.4386 9.14222 10.4026 9.1606L8.28124 10.2214C8.22799 10.2481 8.17062 10.2608 8.11362 10.2608ZM9.48233 7.98651L8.9521 9.04735L10.0129 8.51674L17.1291 1.40058C17.2472 1.28246 17.2787 1.15384 17.2228 1.01809C17.1591 0.865474 16.9997 0.749977 16.8516 0.749977C16.7635 0.749977 16.6784 0.790476 16.5985 0.870348L9.48233 7.98651Z" fill="black"/>
<path d="M16.3334 3.10156C16.2374 3.10156 16.1414 3.06481 16.0679 2.99168L15.0074 1.93084C14.8612 1.78422 14.8612 1.54685 15.0074 1.40023C15.154 1.25399 15.3914 1.25399 15.538 1.40023L16.5985 2.46108C16.7447 2.6077 16.7447 2.84506 16.5985 2.99168C16.5254 3.06518 16.4294 3.10156 16.3334 3.10156Z" fill="black"/>
</svg>
