<svg width="38" height="38" viewBox="0 0 38 38" fill="none" xmlns="http://www.w3.org/2000/svg">
<path d="M8.39169 29.6083C8.70835 29.925 9.02502 30.0833 9.50002 30.0833C9.97502 30.0833 10.2917 29.925 10.6084 29.6083L19 21.2167L27.3917 29.6083C27.7084 29.925 28.1834 30.0833 28.5 30.0833C28.8167 30.0833 29.2917 29.925 29.6084 29.6083C30.2417 28.975 30.2417 28.025 29.6084 27.3917L21.2167 19L29.6084 10.6083C30.2417 9.975 30.2417 9.02501 29.6084 8.39167C28.975 7.75834 28.025 7.75834 27.3917 8.39167L19 16.7833L10.6084 8.39167C9.97502 7.75834 9.02502 7.75834 8.39169 8.39167C7.75835 9.02501 7.75835 9.975 8.39169 10.6083L16.7834 19L8.39169 27.3917C7.75835 28.025 7.75835 28.975 8.39169 29.6083Z" fill="black"/>
</svg>
