<svg width="289" height="100" viewBox="0 0 289 100" fill="none" xmlns="http://www.w3.org/2000/svg">
<mask id="mask0_96_18" style="mask-type:luminance" maskUnits="userSpaceOnUse" x="18" y="23" width="88" height="77">
<path d="M105.795 23.4783H18.2335V99.8885H105.795V23.4783Z" fill="white"/>
</mask>
<g mask="url(#mask0_96_18)">
<path d="M30.6147 81.2988H93.2864V84.3758L93.0311 84.7604L92.6482 85.4014L92.0099 85.9142L91.1165 86.1706H68.6517V83.8629H54.7388V86.1706H32.0187L31.5082 85.6578L30.9976 84.8886L30.7423 84.3758L30.6147 83.7347V81.2988Z" stroke="black"/>
<path d="M56.3981 85.1448H67.12V88.7345H56.3981V85.1448Z" stroke="black"/>
<path d="M30.87 32.4526L31.3805 30.6577L32.1464 29.632L32.9122 28.991L34.5716 28.0936L37.3797 27.3244L39.9325 26.9397L43.5064 26.5551L47.208 26.1705L52.5689 25.7859H56.9087H66.4818H69.9281" stroke="black"/>
<path d="M92.7758 31.6833L92.1376 30.1449L91.2441 29.2474L90.223 28.4782L89.0742 27.8372L87.6701 27.4526L85.1173 27.0679L81.0328 26.5551L77.4589 26.1705L70.4386 25.7859H69.6728" stroke="black"/>
<path d="M94.5628 30.5295V33.2218H100.307L101.2 33.991L102.094 34.6321L102.732 36.8115H104.263H104.902L105.54 37.9654V47.8372L104.902 48.6064L104.263 49.1192H101.2L100.307 48.6064L100.051 47.8372V37.3244L100.945 36.8115V36.0423L100.307 35.2731H99.6684H94.5628L94.818 83.8628L94.5628 85.5295L93.9246 86.4269L92.9034 87.709L91.2441 88.35H68.524V90.4013H54.7388V88.35H32.1464L30.9976 87.709L30.6147 87.3244L29.8489 86.4269L29.2106 85.5295L28.8277 84.3756V81.1705L28.5724 80.6577V62.3244L29.2106 60.4013V34.6321H24.105L23.5945 35.2731L22.9562 35.9141V36.6833L23.5945 37.3244L24.105 37.8372V47.068L23.5945 47.9654L22.9562 48.8628H19.7652L18.8717 48.2218L18.3612 47.068V37.8372L18.8717 37.3244L19.7652 36.6833H21.0416V35.2731L22.0628 33.991L24.105 33.2218H29.2106V30.5295L29.8489 28.7346L31.3805 27.068L33.5504 26.0423L37.1244 25.2731L44.6552 24.3756L54.1006 23.7346H67.8858L80.267 24.3756L87.032 25.2731L89.5848 26.0423L91.8823 27.068L93.5416 28.7346L94.5628 30.5295Z" stroke="black"/>
<path d="M90.4782 97.7089V90.6576V90.1448H89.0742V97.7089L88.8189 98.0935L88.436 98.3499H78.6076L78.2247 98.0935L77.9694 97.7089V97.3243V90.1448H76.4377V97.7089L76.8207 98.3499L77.2036 98.7345L77.5865 99.1191L78.2247 99.5038H88.436H89.0742L89.5848 99.1191L89.9677 98.7345L90.223 98.3499L90.4782 97.7089Z" stroke="black"/>
<path d="M47.0804 97.9655V90.9142V90.4014H45.6763V97.9655L45.421 98.3501L45.0381 98.6065H35.2098L34.8268 98.3501L34.5716 97.9655V97.5809V90.4014H33.0399V97.9655L33.4228 98.6065L33.8057 98.9911L34.1886 99.3757L34.8268 99.7603H45.0381H45.6763L46.1869 99.3757L46.5698 98.9911L46.8251 98.6065L47.0804 97.9655Z" stroke="black"/>
<path d="M35.9766 69.8027C38.0876 69.7801 39.8247 71.5368 39.8482 73.7355C39.8717 75.9342 38.1726 77.7283 36.0616 77.7512C33.9507 77.7737 32.2138 76.0171 32.1903 73.8183C32.1668 71.6196 33.8657 69.8255 35.9766 69.8027Z" stroke="black"/>
<path d="M87.2883 69.8027C89.3992 69.7801 91.1364 71.5368 91.1599 73.7355C91.1833 75.9342 89.4842 77.7283 87.3733 77.7512C85.2623 77.7737 83.5254 76.0171 83.5019 73.8183C83.4784 71.6196 85.1776 69.8255 87.2883 69.8027Z" stroke="black"/>
<path d="M92.7758 31.6834V59.6322L92.3929 60.786L91.8823 61.6834L90.9888 62.5809L90.0953 63.2219L89.0742 63.8629L87.5425 64.1193H62.6525V33.4783H90.0953H90.3506V32.3245L90.0953 31.6834L89.7124 31.2988L89.4571 30.786L88.9466 30.2732L88.0531 29.7604L87.1596 29.2475L86.0108 28.8629L84.4791 28.6065L82.4369 28.2219L78.9906 27.8373L76.1825 27.5809L72.2256 27.3245H53.2071L49.3779 27.5809L47.0804 27.7091L44.6552 27.9655L41.3365 28.3501L38.9114 28.7347L36.4862 29.3757L35.0821 30.145L34.3163 30.9142L33.6781 31.5552L33.2952 32.3245V33.3501V33.4783H60.9932V64.1193H35.2098L33.6781 63.4783L32.9122 62.9655L32.274 62.3245L31.5082 61.427L30.9976 60.5296L30.87 60.0168V32.3245" stroke="black"/>
<path d="M59.3339 41.2988H32.274V59.3758" stroke="black"/>
<path d="M57.9298 46.0422V50.914L52.5689 57.3243L51.4202 59.2474L58.568 50.914V46.0422" stroke="black"/>
<path d="M58.568 46.1704H57.8022" stroke="black"/>
<path d="M51.4202 59.1193L49.2503 61.8116L49.7608 62.3244L59.4615 51.5552V41.427" stroke="black"/>
<path d="M51.5478 61.5551L59.0786 52.8372V53.8628L52.3136 62.1961L51.5478 61.5551Z" stroke="black"/>
<path d="M63.929 41.2988H91.2441V57.0681" stroke="black"/>
<path d="M65.9712 51.0423V45.9141H65.4606V51.0423L72.098 58.6064L65.9712 51.0423Z" stroke="black"/>
<path d="M72.098 58.4783L74.1402 61.5552L73.502 62.1963L64.4395 51.427V41.2988" stroke="black"/>
<path d="M71.7151 61.5551L64.5672 52.9653V54.1192L70.9492 62.0679L71.7151 61.5551Z" stroke="black"/>
<path d="M92.3929 63.6065L93.0311 62.709L93.2864 62.4526V79.5039H30.3594V62.8373L31.2529 63.7347L32.0188 64.6321L33.0399 65.1449L34.5716 66.0424H59.4615H88.0531L89.5848 65.6578L90.4783 65.1449L91.627 64.2475L92.3929 63.6065Z" stroke="black"/>
<path d="M47.3356 68.0935H75.5443V69.5038H47.3356V68.0935Z" stroke="black"/>
<path d="M47.5909 70.6577H75.4166L76.0548 71.0423L76.4378 71.8116L76.8207 72.4526V73.0936L76.4378 73.7346L76.0548 74.2475L75.4166 74.5039H47.208L46.8251 74.2475L46.3145 73.4782V72.4526L46.8251 71.4269L47.5909 70.6577Z" stroke="black"/>
<path d="M47.208 75.6577H75.7996V76.6834H47.208V75.6577Z" stroke="black"/>
</g>
<path d="M122.819 78.6943C122.574 78.6943 122.405 78.643 122.31 78.5404C122.235 78.4378 122.198 78.2633 122.198 78.017L122.226 77.3088L122.169 75.5231C122.056 73.3884 122 71.5309 122 69.9504C122 69.1294 122.028 68.5649 122.085 68.257C122.179 67.7439 122.226 66.2968 122.226 63.9158C122.226 61.4322 122.188 59.5541 122.113 58.2815C122.094 58.1173 122.085 57.8915 122.085 57.6042C122.085 57.2758 122.113 57.0397 122.169 56.896C122.226 56.7524 122.282 56.6805 122.339 56.6805C122.414 56.66 122.536 56.6497 122.706 56.6497L123.327 56.5882C124.625 56.424 125.66 56.3419 126.431 56.3419C128.539 56.3419 130.119 56.9371 131.173 58.1276C132.246 59.2976 132.782 60.8267 132.782 62.7151C132.782 64.2135 132.34 65.6503 131.455 67.0255C131.079 67.6207 130.646 68.1544 130.157 68.6265L132.133 72.5366C133.582 75.3692 134.429 76.9702 134.673 77.3396C134.937 77.7912 135.068 78.0888 135.068 78.2325C135.068 78.3146 135.021 78.3659 134.927 78.3864C134.833 78.407 134.748 78.4172 134.673 78.4172C134.617 78.4172 134.57 78.4172 134.532 78.4172L131.343 78.5096C131.192 78.5096 131.07 78.4378 130.976 78.2941C130.9 78.1504 130.787 77.8938 130.637 77.5244C130.543 77.2165 130.374 76.806 130.129 76.2928C129.753 75.5539 129.103 74.1684 128.181 72.1364L126.742 69.0883L126.827 70.7201L126.968 73.06C127.081 75.8105 127.175 77.3294 127.25 77.6167C127.269 77.6988 127.278 77.8015 127.278 77.9246C127.278 78.2941 127.099 78.4788 126.742 78.4788C126.629 78.4788 126.535 78.4686 126.46 78.448C126.159 78.407 125.425 78.448 124.258 78.5712C123.468 78.6533 122.988 78.6943 122.819 78.6943ZM126.573 64.9934C126.855 64.9934 127.109 64.9319 127.335 64.8087C127.861 64.5419 128.125 63.9979 128.125 63.1769C128.125 62.5817 128.04 62.1404 127.871 61.853C127.702 61.5656 127.485 61.422 127.222 61.422C127.015 61.422 126.836 61.5041 126.685 61.6683C126.667 61.6888 126.667 61.8325 126.685 62.0993C126.704 62.3661 126.714 62.633 126.714 62.8998C126.714 63.1256 126.704 63.2898 126.685 63.3924C126.61 63.7414 126.573 64.1006 126.573 64.47L126.544 64.7471L126.573 64.9934ZM140.554 78.5404C139.18 78.5404 138.079 78.2428 137.251 77.6475C136.423 77.0523 136.009 75.9952 136.009 74.4763C136.104 73.4911 136.772 72.7624 138.013 72.2903C139.255 71.8182 140.648 71.5822 142.191 71.5822C142.68 71.5822 143.263 71.5411 143.941 71.459C144.618 71.3769 145.239 71.3359 145.804 71.3359C145.728 69.1191 145.597 67.3847 145.409 66.1326C145.239 64.86 144.938 63.9056 144.505 63.2693C144.091 62.633 143.499 62.3148 142.727 62.3148C142.163 62.3148 141.626 62.4585 141.118 62.7459C140.61 63.0332 139.98 63.4848 139.227 64.1006C138.606 64.5932 138.296 64.8395 138.296 64.8395C138.277 64.8395 138.211 64.8805 138.098 64.9626C138.004 65.0242 137.91 65.0447 137.816 65.0242C137.647 64.9832 137.562 64.8908 137.562 64.7471C137.487 64.624 137.393 64.3469 137.28 63.9158C137.186 63.4848 137.138 63.1769 137.138 62.9922C137.138 62.869 137.251 62.7253 137.477 62.5611C138.437 61.7812 139.246 61.2064 139.905 60.837C140.582 60.447 141.156 60.2007 141.626 60.0981C142.116 59.9954 142.68 59.9441 143.32 59.9441C145.202 59.9441 146.462 60.6112 147.102 61.9454C147.761 63.259 148.09 65.014 148.09 67.2102C148.09 67.7849 148.071 68.5649 148.033 69.5501C148.033 70.1454 147.996 71.0177 147.921 72.1672L147.892 72.9061L147.921 74.7226C147.958 75.5436 147.977 76.1697 147.977 76.6007L147.949 77.5244C147.911 77.9965 147.742 78.2325 147.441 78.2325L147.215 78.2017H146.058C145.982 78.2017 145.907 78.1709 145.832 78.1094C145.775 78.0273 145.747 77.9349 145.747 77.8323V77.5859C144.618 77.9349 143.715 78.1812 143.038 78.3249C142.36 78.4686 141.532 78.5404 140.554 78.5404ZM140.582 76.7854C142.595 76.7854 144.317 76.416 145.747 75.6771L145.832 72.8137C144.948 72.7316 144.185 72.6906 143.546 72.6906L141.88 72.7214C140.977 72.7214 140.168 72.9163 139.453 73.3063C138.738 73.6758 138.352 74.1992 138.296 74.8766C138.296 75.6155 138.456 76.1184 138.776 76.3852C139.095 76.652 139.698 76.7854 140.582 76.7854ZM155.634 78.5404C154.222 78.5404 153.112 78.1401 152.303 77.3396C151.494 76.5391 151.09 75.1639 151.09 73.214C151.09 71.3051 151.626 69.9709 152.698 69.2115C153.79 68.452 155.032 67.9902 156.424 67.826L157.751 67.6412C158.635 67.4976 159.303 67.4257 159.755 67.4257V67.0255L159.614 65.4245C159.519 64.4392 159.331 63.7927 159.049 63.4848C158.767 63.1564 158.381 62.9922 157.892 62.9922C157.534 62.9922 156.894 63.2282 155.972 63.7003C155.05 64.1519 154.138 64.7163 153.235 65.3937C153.216 65.4142 153.178 65.4245 153.122 65.4245C153.046 65.4245 152.962 65.3526 152.868 65.209C152.717 64.9626 152.595 64.624 152.501 64.1929C152.463 64.0082 152.378 63.7927 152.247 63.5464C152.134 63.3001 152.077 63.1153 152.077 62.9922C152.077 62.869 152.19 62.7253 152.416 62.5611C153.47 61.8017 154.335 61.2372 155.013 60.8678C155.709 60.4983 156.311 60.252 156.819 60.1288C157.327 60.0057 157.901 59.9441 158.541 59.9441C160.554 59.9441 162.031 60.7036 162.972 62.2225C163.161 62.5304 163.311 62.869 163.424 63.2385C163.537 63.6079 163.631 63.9672 163.706 64.3161C163.8 64.6445 163.857 64.86 163.876 64.9626C164.177 66.3173 164.299 67.8465 164.242 69.5501C164.242 71.069 164.224 72.1877 164.186 72.9061C164.186 73.3371 164.224 73.9837 164.299 74.8458C164.374 75.79 164.402 76.5186 164.384 77.0317L164.412 77.4012C164.412 77.8733 164.242 78.1094 163.904 78.1094C163.678 78.1094 163.245 78.1299 162.605 78.1709C161.966 78.212 161.505 78.2325 161.222 78.2325C161.034 78.2325 160.865 78.2428 160.714 78.2633C160.564 78.2838 160.423 78.2941 160.291 78.2941C160.216 78.2941 160.14 78.2633 160.065 78.2017C160.009 78.1196 159.98 78.0272 159.98 77.9246L159.924 77.5552C159.905 77.5346 159.886 77.4936 159.868 77.432C159.868 77.3704 159.849 77.3191 159.811 77.2781C158.757 78.1196 157.365 78.5404 155.634 78.5404ZM155.351 75.6155C156.255 75.6155 157.092 75.5129 157.864 75.3076C158.635 75.1023 159.265 74.815 159.755 74.4455L159.698 71.9824C159.058 71.8593 158.569 71.7874 158.23 71.7669C157.911 71.7259 157.412 71.7053 156.735 71.7053C155.925 71.7053 155.154 71.8695 154.42 72.198C153.705 72.5264 153.319 73.2242 153.263 74.2916C153.225 74.6405 153.366 74.9484 153.686 75.2152C154.006 75.4821 154.561 75.6155 155.351 75.6155ZM172.023 78.2633C171.91 78.2633 171.59 78.2428 171.064 78.2017C170.556 78.1401 170.104 78.1094 169.709 78.1094C169.408 78.1094 169.031 78.1299 168.58 78.1709L167.987 78.2017C167.705 78.2017 167.564 78.0786 167.564 77.8323L167.592 77.2473L167.535 74.9381C167.517 74.0761 167.488 72.9985 167.451 71.7053C167.432 70.4122 167.432 69.6322 167.451 69.3654C167.47 69.2012 167.479 68.6162 167.479 67.6105V66.4713C167.46 65.835 167.47 64.7779 167.507 63.3001L167.535 60.683C167.535 60.0057 167.517 59.1539 167.479 58.1276C167.441 57.6555 167.423 57.0603 167.423 56.3419L167.394 55.8185C167.394 55.5927 167.441 55.4695 167.535 55.449C167.648 55.4285 167.771 55.4285 167.902 55.449C168.053 55.449 168.203 55.449 168.354 55.449C168.58 55.4695 168.966 55.4798 169.511 55.4798C170.113 55.4798 170.556 55.4695 170.838 55.449C171.026 55.449 171.214 55.449 171.402 55.449C171.609 55.4285 171.779 55.4285 171.91 55.449C171.967 55.449 172.014 55.49 172.051 55.5721C172.108 55.6337 172.136 55.685 172.136 55.7261L172.08 56.2495L172.164 57.9121L172.136 60.3751L172.193 60.6215C173.171 60.0673 174.15 59.7902 175.128 59.7902C175.937 59.7902 176.586 59.9133 177.076 60.1596C177.584 60.4059 178.045 60.8883 178.459 61.6067C178.891 62.3662 179.193 63.0948 179.362 63.7927C179.456 64.2853 179.503 64.9011 179.503 65.64L179.559 66.7792C179.672 68.5033 179.729 69.7451 179.729 70.5046C179.729 70.9767 179.71 71.5411 179.672 72.198L179.644 73.1832C179.644 73.3269 179.635 73.7066 179.616 74.3224C179.616 74.9176 179.616 75.9336 179.616 77.3704C179.616 77.4731 179.625 77.5654 179.644 77.6475C179.663 77.7296 179.672 77.822 179.672 77.9246C179.672 78.0683 179.578 78.1504 179.39 78.1709C179.202 78.1915 178.76 78.2017 178.063 78.2017C176.953 78.2017 176.182 78.1915 175.749 78.1709C175.617 78.1709 175.467 78.1812 175.297 78.2017C175.128 78.2428 174.987 78.2633 174.874 78.2633C174.742 78.2428 174.676 78.1607 174.676 78.017C174.601 77.3191 174.564 75.7694 174.564 73.3679L174.592 71.1511C174.629 70.0838 174.648 69.273 174.648 68.7189C174.648 67.7336 174.564 66.9947 174.394 66.5021C174.244 65.9889 173.924 65.7324 173.435 65.7324C173.209 65.7324 173.021 65.7631 172.87 65.8247C172.719 65.8658 172.56 65.9479 172.39 66.071L172.418 72.1056C172.475 73.7682 172.503 74.9792 172.503 75.7386C172.503 76.5597 172.484 77.1344 172.447 77.4628V77.5552C172.447 77.6373 172.456 77.7296 172.475 77.8323C172.494 77.9349 172.494 78.0067 172.475 78.0478C172.475 78.1915 172.324 78.2633 172.023 78.2633ZM185.147 71.028C184.752 71.028 184.404 71.0177 184.103 70.9972C183.821 70.9767 183.604 70.9664 183.454 70.9664C183.209 70.9664 183.058 70.9459 183.002 70.9048C182.946 70.8638 182.917 70.8022 182.917 70.7201C182.936 70.6175 182.946 70.5354 182.946 70.4738L182.889 69.7964C182.814 69.1396 182.795 68.7599 182.833 68.6573C182.833 68.5341 182.936 68.4725 183.143 68.4725C183.2 68.4725 183.341 68.4931 183.567 68.5341H185.599C185.975 68.5341 186.295 68.5239 186.558 68.5033C187.123 68.4623 188.045 68.4417 189.325 68.4417H193.276C193.408 68.4417 193.483 68.4828 193.502 68.5649C193.54 68.6265 193.549 68.6983 193.53 68.7804C193.53 68.8625 193.53 68.9241 193.53 68.9652V70.5662C193.53 70.7304 193.427 70.8125 193.22 70.8125L192.796 70.7817C192.665 70.7817 192.382 70.8022 191.949 70.8433C191.536 70.8638 191.178 70.874 190.877 70.874L188.45 70.9356C187.584 70.9356 187.001 70.9459 186.7 70.9664C186.398 70.9664 186.192 70.9664 186.079 70.9664C185.909 71.0075 185.599 71.028 185.147 71.028ZM203.804 78.4788C202.299 78.4788 200.982 78.1299 199.853 77.432C198.724 76.7341 197.858 75.8002 197.256 74.6303C196.673 73.4603 196.381 72.1672 196.381 70.7509C196.381 68.9652 196.682 67.4257 197.284 66.1326C197.886 64.819 198.752 63.7824 199.881 63.023C201.01 62.2635 202.289 61.8838 203.719 61.8838C205.187 61.8838 206.438 62.2122 207.473 62.869C208.527 63.5258 209.317 64.4187 209.844 65.5476C210.371 66.656 210.635 67.8978 210.635 69.273C210.635 69.9709 210.428 70.5148 210.014 70.9048C209.6 71.2948 209.045 71.5206 208.348 71.5822C206.937 71.7259 205.686 71.7977 204.594 71.7977C203.56 71.7977 202.449 71.7669 201.264 71.7053L200.276 71.6746C200.389 72.6803 200.746 73.4705 201.349 74.0453C201.969 74.5995 202.901 74.856 204.143 74.815C204.707 74.7945 205.159 74.7226 205.498 74.5995C205.836 74.4558 206.137 74.2505 206.401 73.9837C206.551 73.8195 206.711 73.645 206.881 73.4603C207.05 73.2756 207.238 73.1319 207.445 73.0292C207.652 72.9266 207.906 72.8753 208.207 72.8753C208.697 72.8753 209.101 73.06 209.421 73.4295C209.76 73.7784 209.929 74.1889 209.929 74.661C209.929 75.3179 209.628 75.9439 209.026 76.5391C208.424 77.1344 207.643 77.6065 206.683 77.9554C205.742 78.3043 204.783 78.4788 203.804 78.4788ZM200.332 68.5341C201.443 68.6983 202.675 68.7599 204.03 68.7189C205.328 68.6983 206.279 68.606 206.881 68.4417C206.843 67.5591 206.598 66.851 206.147 66.3173C205.714 65.7837 204.924 65.5271 203.776 65.5476C202.816 65.5682 202.035 65.8042 201.433 66.2558C200.831 66.7073 200.464 67.4668 200.332 68.5341ZM214.761 71.9209C214.234 71.9209 213.792 71.7259 213.435 71.3359C213.077 70.9254 212.898 70.443 212.898 69.8888C212.898 69.3346 213.077 68.8625 213.435 68.4725C213.792 68.062 214.234 67.8568 214.761 67.8568H219.757C220.284 67.8568 220.726 68.062 221.084 68.4725C221.441 68.8625 221.62 69.3346 221.62 69.8888C221.62 70.443 221.441 70.9254 221.084 71.3359C220.726 71.7259 220.284 71.9209 219.757 71.9209H214.761ZM230.516 78.8483C227.806 78.8483 226.085 78.2838 225.351 77.1549C224.617 76.0055 224.231 75.4102 224.193 75.3692C224.118 75.2665 224.081 75.1639 224.081 75.0613C224.081 74.9997 224.156 74.8663 224.306 74.661C224.551 74.2916 224.908 73.8503 225.379 73.3371C225.454 73.255 225.529 73.214 225.605 73.214C225.699 73.214 225.802 73.2961 225.915 73.4603C226.028 73.604 226.122 73.7169 226.197 73.799C227.308 75.01 228.568 75.6155 229.98 75.6155C230.695 75.6155 231.316 75.4718 231.842 75.1844C232.369 74.8766 232.633 74.3121 232.633 73.4911C232.633 72.0748 231.607 70.5662 229.556 68.9652C229.218 68.7189 228.898 68.5136 228.597 68.3494C227.806 67.8773 227.129 67.4155 226.564 66.9639C226 66.5123 225.501 65.9171 225.068 65.1782C224.636 64.4392 224.419 63.5772 224.419 62.5919C224.419 61.3604 224.767 60.252 225.464 59.2668C226.179 58.2815 227.025 57.5118 228.004 56.9576C229.001 56.4034 229.867 56.1263 230.601 56.1263C232.388 56.1263 233.856 56.5163 235.004 57.2963C236.17 58.0558 237.074 58.7844 237.713 59.4823C237.789 59.5644 237.826 59.6568 237.826 59.7594C237.826 59.821 237.798 59.9031 237.742 60.0057C237.704 60.0878 237.676 60.1494 237.657 60.1904C237.563 60.3341 237.403 60.5907 237.177 60.9601C236.97 61.3091 236.801 61.5656 236.669 61.7299C236.613 61.812 236.547 61.9043 236.471 62.0069C236.415 62.089 236.359 62.1506 236.302 62.1917C236.264 62.2327 236.199 62.2533 236.105 62.2533C236.067 62.2533 235.973 62.1917 235.822 62.0685C235.691 61.9248 235.559 61.8017 235.427 61.6991C234.674 60.9807 233.941 60.3649 233.226 59.8517C232.51 59.3386 231.824 59.082 231.165 59.082C230.638 59.082 230.205 59.2154 229.867 59.4823C229.528 59.7286 229.359 60.3033 229.359 61.2064C229.359 62.089 229.66 62.7767 230.262 63.2693C230.864 63.7619 231.664 64.234 232.661 64.6855C232.755 64.7266 233.301 64.9832 234.298 65.4553C235.314 65.9274 236.208 66.8305 236.98 68.1647C237.77 69.4988 238.165 71.0896 238.165 72.9369C238.165 74.9073 237.488 76.3852 236.133 77.3704C234.778 78.3557 232.906 78.8483 230.516 78.8483ZM244.69 78.5404C243.316 78.5404 242.216 78.2428 241.388 77.6475C240.56 77.0523 240.146 75.9952 240.146 74.4763C240.24 73.4911 240.908 72.7624 242.15 72.2903C243.392 71.8182 244.784 71.5822 246.327 71.5822C246.816 71.5822 247.4 71.5411 248.077 71.459C248.754 71.3769 249.375 71.3359 249.94 71.3359C249.865 69.1191 249.733 67.3847 249.545 66.1326C249.375 64.86 249.074 63.9056 248.642 63.2693C248.228 62.633 247.635 62.3148 246.863 62.3148C246.299 62.3148 245.763 62.4585 245.255 62.7459C244.746 63.0332 244.116 63.4848 243.363 64.1006C242.742 64.5932 242.432 64.8395 242.432 64.8395C242.413 64.8395 242.347 64.8805 242.234 64.9626C242.14 65.0242 242.046 65.0447 241.952 65.0242C241.783 64.9832 241.698 64.8908 241.698 64.7471C241.623 64.624 241.529 64.3469 241.416 63.9158C241.322 63.4848 241.275 63.1769 241.275 62.9922C241.275 62.869 241.388 62.7253 241.613 62.5611C242.573 61.7812 243.382 61.2064 244.041 60.837C244.718 60.447 245.292 60.2007 245.763 60.0981C246.252 59.9954 246.816 59.9441 247.456 59.9441C249.338 59.9441 250.599 60.6112 251.238 61.9454C251.897 63.259 252.226 65.014 252.226 67.2102C252.226 67.7849 252.207 68.5649 252.17 69.5501C252.17 70.1454 252.132 71.0177 252.057 72.1672L252.029 72.9061L252.057 74.7226C252.094 75.5436 252.113 76.1697 252.113 76.6007L252.085 77.5244C252.047 77.9965 251.878 78.2325 251.577 78.2325L251.351 78.2017H250.194C250.119 78.2017 250.043 78.1709 249.968 78.1094C249.912 78.0273 249.883 77.9349 249.883 77.8323V77.5859C248.754 77.9349 247.851 78.1812 247.174 78.3249C246.496 78.4686 245.669 78.5404 244.69 78.5404ZM244.718 76.7854C246.732 76.7854 248.453 76.416 249.883 75.6771L249.968 72.8137C249.084 72.7316 248.322 72.6906 247.682 72.6906L246.017 72.7214C245.113 72.7214 244.304 72.9163 243.589 73.3063C242.874 73.6758 242.488 74.1992 242.432 74.8766C242.432 75.6155 242.592 76.1184 242.912 76.3852C243.232 76.652 243.834 76.7854 244.718 76.7854ZM256.665 78.3557C256.327 78.3557 256.176 77.9349 256.214 77.0933V74.5995C256.195 74.3121 256.185 73.9837 256.185 73.6142C256.204 73.2448 256.214 72.9985 256.214 72.8753L256.298 66.9023C256.317 66.7381 256.308 66.1429 256.27 65.1166C256.232 64.4187 256.214 63.8953 256.214 63.5464H255.931C255.442 63.5258 255.113 63.413 254.943 63.2077C254.774 63.0024 254.689 62.633 254.689 62.0993L254.718 61.1757C254.755 60.8472 254.774 60.5599 254.774 60.3136C255.075 60.3136 255.546 60.3341 256.185 60.3751C256.204 59.041 256.251 58.0763 256.327 57.481C256.402 56.8653 256.628 56.3726 257.004 56.0032C257.399 55.6337 258.048 55.449 258.951 55.449C259.441 55.449 259.855 55.49 260.193 55.5721C260.551 55.6337 260.984 55.7774 261.492 56.0032C261.567 56.0648 261.576 56.1366 261.52 56.2187L261.379 56.7421C261.379 57.05 261.275 57.2039 261.068 57.2039C260.937 57.2039 260.72 57.1937 260.419 57.1731C260.118 57.1321 259.761 57.1116 259.347 57.1116C258.726 57.1116 258.331 57.2553 258.161 57.5426C257.992 57.8094 257.898 58.3123 257.879 59.0512V59.667L257.851 60.3751L258.443 60.3444C259.309 60.3033 259.939 60.2931 260.335 60.3136C260.372 60.3136 260.485 60.3238 260.673 60.3444C260.861 60.3649 260.984 60.447 261.04 60.5907V61.7299C261.04 61.9146 261.059 62.1198 261.097 62.3456C261.134 62.5509 261.144 62.7048 261.125 62.8074C261.125 63.1153 261.04 63.3103 260.871 63.3924C260.476 63.5772 259.798 63.6695 258.839 63.6695C258.406 63.6695 258.086 63.6593 257.879 63.6387L257.907 64.1314L257.794 71.459C257.775 71.8901 257.766 72.4956 257.766 73.2756C257.766 74.6303 257.822 75.8926 257.935 77.0625C257.954 77.2678 257.964 77.5038 257.964 77.7707C257.964 78.058 257.775 78.2325 257.399 78.2941C257.324 78.3351 257.239 78.3454 257.145 78.3249C257.051 78.3249 256.985 78.3249 256.947 78.3249L256.665 78.3557ZM266.937 78.5404C265.525 78.5404 264.415 78.1401 263.606 77.3396C262.797 76.5391 262.392 75.1639 262.392 73.214C262.392 71.3051 262.929 69.9709 264.001 69.2115C265.093 68.452 266.334 67.9902 267.727 67.826L269.054 67.6412C269.938 67.4976 270.606 67.4257 271.057 67.4257V67.0255L270.916 65.4245C270.822 64.4392 270.634 63.7927 270.352 63.4848C270.07 63.1564 269.684 62.9922 269.195 62.9922C268.837 62.9922 268.197 63.2282 267.275 63.7003C266.353 64.1519 265.441 64.7163 264.537 65.3937C264.519 65.4142 264.481 65.4245 264.425 65.4245C264.349 65.4245 264.265 65.3526 264.171 65.209C264.02 64.9626 263.898 64.624 263.804 64.1929C263.766 64.0082 263.681 63.7927 263.55 63.5464C263.437 63.3001 263.38 63.1153 263.38 62.9922C263.38 62.869 263.493 62.7253 263.719 62.5611C264.773 61.8017 265.638 61.2372 266.316 60.8678C267.012 60.4983 267.614 60.252 268.122 60.1288C268.63 60.0057 269.204 59.9441 269.844 59.9441C271.857 59.9441 273.334 60.7036 274.275 62.2225C274.463 62.5304 274.614 62.869 274.727 63.2385C274.84 63.6079 274.934 63.9672 275.009 64.3161C275.103 64.6445 275.16 64.86 275.178 64.9626C275.479 66.3173 275.602 67.8465 275.545 69.5501C275.545 71.069 275.527 72.1877 275.489 72.9061C275.489 73.3371 275.527 73.9837 275.602 74.8458C275.677 75.79 275.705 76.5186 275.686 77.0317L275.715 77.4012C275.715 77.8733 275.545 78.1094 275.207 78.1094C274.981 78.1094 274.548 78.1299 273.908 78.1709C273.268 78.212 272.807 78.2325 272.525 78.2325C272.337 78.2325 272.168 78.2428 272.017 78.2633C271.867 78.2838 271.726 78.2941 271.594 78.2941C271.519 78.2941 271.443 78.2633 271.368 78.2017C271.312 78.1196 271.283 78.0272 271.283 77.9246L271.227 77.5552C271.208 77.5346 271.189 77.4936 271.17 77.432C271.17 77.3704 271.152 77.3191 271.114 77.2781C270.06 78.1196 268.668 78.5404 266.937 78.5404ZM266.654 75.6155C267.558 75.6155 268.395 75.5129 269.166 75.3076C269.938 75.1023 270.568 74.815 271.057 74.4455L271.001 71.9824C270.361 71.8593 269.872 71.7874 269.533 71.7669C269.213 71.7259 268.715 71.7053 268.037 71.7053C267.228 71.7053 266.457 71.8695 265.723 72.198C265.008 72.5264 264.622 73.2242 264.566 74.2916C264.528 74.6405 264.669 74.9484 264.989 75.2152C265.309 75.4821 265.864 75.6155 266.654 75.6155ZM282.903 78.2941C282.884 78.2941 282.733 78.2736 282.451 78.2325C282.188 78.1915 281.83 78.1709 281.379 78.1709L279.205 78.2017C278.923 78.2017 278.782 78.0786 278.782 77.8323C278.782 77.7501 278.782 77.4731 278.782 77.001C278.801 76.5289 278.81 75.7181 278.81 74.5687C278.81 73.3987 278.838 72.2698 278.895 71.1819C278.97 70.0941 279.008 69.4886 279.008 69.3654L279.177 63.7927L279.205 60.6215C279.205 60.3957 279.252 60.2725 279.346 60.252C279.44 60.252 279.647 60.2623 279.967 60.2828C280.287 60.3033 280.692 60.3136 281.181 60.3136C281.557 60.3136 281.924 60.3033 282.282 60.2828C282.658 60.2623 282.884 60.252 282.959 60.252C283.016 60.252 283.063 60.293 283.1 60.3751C283.157 60.4367 283.185 60.488 283.185 60.5291L283.241 61.3912C283.881 60.9396 284.624 60.5599 285.471 60.252C286.337 59.9236 286.995 59.7594 287.447 59.7594C287.56 59.7594 287.635 59.7696 287.673 59.7902C287.71 59.8107 287.748 59.9031 287.786 60.0673C287.842 60.2109 287.889 60.3341 287.927 60.4367C288.115 60.9499 288.237 61.5656 288.294 62.284C288.313 62.6125 288.36 62.9922 288.435 63.4232C288.473 63.608 288.491 63.8337 288.491 64.1006C288.491 64.2648 288.482 64.3571 288.463 64.3777C288.313 64.624 288.087 64.7984 287.786 64.9011C287.485 64.9832 287.042 65.0653 286.459 65.1474C285.725 65.2295 285.095 65.3526 284.568 65.5168L283.326 65.8247L283.354 67.0563C283.354 67.7336 283.364 68.0825 283.383 68.1031L283.411 70.7201C283.448 72.0748 283.467 73.9221 283.467 76.262C283.467 77.1652 283.43 77.7707 283.354 78.0786C283.354 78.2222 283.204 78.2941 282.903 78.2941Z" fill="#0A549C"/>
</svg>
