<svg width="39" height="39" viewBox="0 0 39 39" fill="none" xmlns="http://www.w3.org/2000/svg">
<g clip-path="url(#clip0_96_70)">
<path d="M19.773 16.9977L12.5663 6.91382H8.72255L17.6498 19.4043L18.7736 20.9755L26.4148 31.676H30.2585L20.892 18.569L19.773 16.9977Z" fill="black"/>
<path d="M35.7378 -0.25H3.26219C1.46047 -0.25 0 1.21047 0 3.01219V35.4878C0 37.2895 1.46047 38.75 3.26219 38.75H35.7378C37.5395 38.75 39 37.2895 39 35.4878V3.01219C39 1.21047 37.5395 -0.25 35.7378 -0.25ZM25.2354 33.4318L17.5018 22.4178L7.82028 33.4318H5.31818L16.3922 20.8372L5.31818 5.06818H13.7646L21.0862 15.4953L30.2597 5.06818H32.7617L22.2016 17.0795L33.6818 33.4318H25.2354Z" fill="black"/>
</g>
<defs>
<clipPath id="clip0_96_70">
<rect width="39" height="39" fill="white"/>
</clipPath>
</defs>
</svg>
