<svg width="44" height="44" viewBox="0 0 44 44" fill="none" xmlns="http://www.w3.org/2000/svg">
<path fill-rule="evenodd" clip-rule="evenodd" d="M22 2.75C11.3695 2.75 2.75 11.5844 2.75 22.4898C2.75 31.2125 8.26719 38.6031 15.9156 41.2156C16.8781 41.3961 17.2305 40.7859 17.2305 40.2617C17.2305 39.7891 17.2133 38.5516 17.2047 36.9016C11.8508 38.0961 10.7164 34.2547 10.7164 34.2547C9.83984 31.9773 8.57656 31.3672 8.57656 31.3672C6.83203 30.1383 8.70547 30.1641 8.70547 30.1641C10.6391 30.3016 11.6531 32.2008 11.6531 32.2008C13.3719 35.2172 16.1562 34.3492 17.2563 33.8422C17.4281 32.5703 17.9266 31.6938 18.4766 31.2039C14.2055 30.7055 9.71094 29.0125 9.71094 21.45C9.71094 19.293 10.4586 17.5312 11.6875 16.1562C11.4898 15.6578 10.8281 13.6469 11.8766 10.9312C11.8766 10.9312 13.4922 10.3984 17.1703 12.9508C18.7086 12.5125 20.35 12.2977 21.9914 12.2891C23.6242 12.2977 25.2742 12.5125 26.8125 12.9508C30.4906 10.3984 32.0977 10.9312 32.0977 10.9312C33.1461 13.6469 32.4844 15.6578 32.2867 16.1562C33.5156 17.5398 34.2633 19.3016 34.2633 21.45C34.2633 29.0297 29.7602 30.6969 25.4719 31.1867C26.1594 31.7969 26.7781 33 26.7781 34.8391C26.7781 37.4773 26.7523 39.6086 26.7523 40.2531C26.7523 40.7773 27.0961 41.3961 28.0758 41.1984C35.7414 38.5945 41.25 31.2039 41.25 22.4898C41.25 11.5844 32.6305 2.75 22 2.75Z" fill="black"/>
</svg>
