<svg width="23" height="23" viewBox="0 0 23 23" fill="none" xmlns="http://www.w3.org/2000/svg">
<path d="M11.5 2.15625C6.33848 2.15625 2.15625 6.33848 2.15625 11.5C2.15625 16.6615 6.33848 20.8438 11.5 20.8438C16.6615 20.8438 20.8438 16.6615 20.8438 11.5C20.8438 6.33848 16.6615 2.15625 11.5 2.15625ZM11.5 20.0666C6.77871 20.0666 2.9334 16.2258 2.9334 11.5C2.9334 6.77871 6.77422 2.9334 11.5 2.9334C16.2213 2.9334 20.0666 6.77422 20.0666 11.5C20.0666 16.2213 16.2213 20.0666 11.5 20.0666Z" fill="black"/>
<path d="M11.5 11.5H7.1875V12.2771H12.2771V5.75H11.5V11.5Z" fill="black"/>
</svg>
