<svg width="243" height="17" viewBox="0 0 243 17" fill="none" xmlns="http://www.w3.org/2000/svg">
<path d="M238.405 13.1579C238.165 13.1579 237.955 13.0798 237.775 12.9237C237.595 12.7555 237.504 12.5333 237.504 12.257L237.468 8.58131C237.456 7.75248 237.45 6.71945 237.45 5.48221V4.41914C237.45 4.14286 237.535 3.92665 237.703 3.77049C237.871 3.61434 238.075 3.53626 238.315 3.53626C238.568 3.53626 238.784 3.62034 238.964 3.78851C239.156 3.94467 239.252 4.16689 239.252 4.45518V4.99572C239.384 4.70743 239.631 4.46118 239.991 4.25698C240.483 3.95668 241.024 3.80653 241.613 3.80653C242.057 3.80653 242.399 3.8786 242.64 4.02274C242.88 4.16689 243 4.42515 243 4.79752C243 5.03776 242.928 5.24197 242.784 5.41014C242.64 5.56629 242.429 5.64437 242.153 5.64437C241.144 5.64437 240.447 5.78251 240.063 6.05878C239.847 6.20293 239.655 6.3771 239.486 6.58131C239.33 6.78551 239.252 6.98371 239.252 7.1759L239.288 9.42816L239.306 12.257C239.306 12.5333 239.216 12.7555 239.036 12.9237C238.856 13.0798 238.646 13.1579 238.405 13.1579Z" fill="black"/>
<path d="M231.22 13.2476C230.331 13.1875 229.557 13.0073 228.896 12.707C228.235 12.4067 227.731 12.0284 227.382 11.5719C227.034 11.1154 226.782 10.695 226.626 10.3106C226.47 9.92625 226.373 9.54787 226.337 9.17549C226.301 8.79111 226.319 8.29862 226.391 7.69801C226.476 7.19351 226.65 6.69501 226.914 6.20252C227.19 5.71002 227.551 5.27158 227.995 4.8872C228.451 4.4908 228.998 4.1905 229.635 3.9863C230.271 3.77008 230.95 3.70401 231.671 3.7881C232.367 3.87218 232.962 4.06438 233.455 4.36468C233.947 4.65296 234.367 5.02534 234.716 5.48179C235.016 5.86618 235.196 6.15447 235.256 6.34666C235.328 6.53885 235.388 6.71903 235.436 6.8872C235.497 7.05537 235.545 7.19952 235.581 7.31964C235.617 7.43976 235.647 7.56588 235.671 7.69801C235.707 7.81813 235.731 7.96228 235.743 8.13045C235.755 8.35868 235.713 8.56889 235.617 8.76108C235.521 8.95327 235.376 9.10342 235.184 9.21153C235.028 9.27159 234.86 9.30162 234.68 9.30162L231.599 9.35568C229.436 9.36769 228.355 9.39171 228.355 9.42775H228.301C228.457 10.0404 228.782 10.5208 229.274 10.8692C229.779 11.2175 230.464 11.4217 231.328 11.4818C231.797 11.5058 232.187 11.4818 232.5 11.4097C232.848 11.3136 233.1 11.2296 233.256 11.1575C233.412 11.0734 233.605 10.9653 233.833 10.8332C234.061 10.7491 234.289 10.7611 234.518 10.8692C234.746 10.9773 234.902 11.1455 234.986 11.3737C235.07 11.6019 235.058 11.8241 234.95 12.0404C234.854 12.2566 234.698 12.4248 234.482 12.5449C234.289 12.653 234.091 12.7491 233.887 12.8332C233.683 12.9052 233.382 12.9953 232.986 13.1034C232.59 13.2115 232.001 13.2596 231.22 13.2476ZM228.337 7.66198C229.034 7.62594 230.842 7.58991 233.761 7.55387C233.653 7.19351 233.479 6.85117 233.238 6.52684C232.758 5.97429 232.163 5.65597 231.455 5.57188C230.71 5.47579 230.055 5.63795 229.491 6.05837C228.926 6.46678 228.542 7.00132 228.337 7.66198Z" fill="black"/>
<path d="M220.54 13.2476C219.651 13.1875 218.876 13.0073 218.215 12.707C217.555 12.4067 217.05 12.0284 216.702 11.5719C216.353 11.1154 216.101 10.695 215.945 10.3106C215.789 9.92625 215.693 9.54787 215.657 9.17549C215.621 8.79111 215.639 8.29862 215.711 7.69801C215.795 7.19351 215.969 6.69501 216.233 6.20252C216.51 5.71002 216.87 5.27158 217.314 4.8872C217.771 4.4908 218.317 4.1905 218.954 3.9863C219.591 3.77008 220.269 3.70401 220.99 3.7881C221.687 3.87218 222.281 4.06438 222.774 4.36468C223.266 4.65296 223.687 5.02534 224.035 5.48179C224.335 5.86618 224.516 6.15447 224.576 6.34666C224.648 6.53885 224.708 6.71903 224.756 6.8872C224.816 7.05537 224.864 7.19952 224.9 7.31964C224.936 7.43976 224.966 7.56588 224.99 7.69801C225.026 7.81813 225.05 7.96228 225.062 8.13045C225.074 8.35868 225.032 8.56889 224.936 8.76108C224.84 8.95327 224.696 9.10342 224.504 9.21153C224.347 9.27159 224.179 9.30162 223.999 9.30162L220.918 9.35568C218.756 9.36769 217.675 9.39171 217.675 9.42775H217.621C217.777 10.0404 218.101 10.5208 218.594 10.8692C219.098 11.2175 219.783 11.4217 220.648 11.4818C221.116 11.5058 221.507 11.4818 221.819 11.4097C222.167 11.3136 222.42 11.2296 222.576 11.1575C222.732 11.0734 222.924 10.9653 223.152 10.8332C223.38 10.7491 223.609 10.7611 223.837 10.8692C224.065 10.9773 224.221 11.1455 224.305 11.3737C224.39 11.6019 224.377 11.8241 224.269 12.0404C224.173 12.2566 224.017 12.4248 223.801 12.5449C223.609 12.653 223.411 12.7491 223.206 12.8332C223.002 12.9052 222.702 12.9953 222.305 13.1034C221.909 13.2115 221.32 13.2596 220.54 13.2476ZM217.657 7.66198C218.353 7.62594 220.161 7.58991 223.08 7.55387C222.972 7.19351 222.798 6.85117 222.558 6.52684C222.077 5.97429 221.483 5.65597 220.774 5.57188C220.029 5.47579 219.374 5.63795 218.81 6.05837C218.245 6.46678 217.861 7.00132 217.657 7.66198Z" fill="black"/>
<path d="M206.874 13.1577C206.634 13.1577 206.423 13.0796 206.243 12.9234C206.063 12.7553 205.973 12.533 205.973 12.2568C205.973 11.3078 205.967 10.491 205.955 9.80632C205.931 7.76427 205.919 5.9925 205.919 4.49099C205.919 4.21471 206.003 3.9985 206.171 3.84234C206.339 3.68618 206.543 3.60811 206.784 3.60811C207.036 3.60811 207.252 3.69219 207.432 3.86036C207.625 4.01652 207.721 4.23874 207.721 4.52703V5.08559C208.465 4.11261 209.444 3.62612 210.658 3.62612C211.703 3.62612 212.501 3.99249 213.054 4.72523C213.619 5.45796 213.901 6.44295 213.901 7.68019C213.901 9.04956 213.883 9.95046 213.847 10.3829L213.757 11.5901L213.703 12.3649C213.679 12.6051 213.583 12.7973 213.414 12.9415C213.246 13.0856 213.048 13.1577 212.82 13.1577C212.58 13.1577 212.369 13.0796 212.189 12.9234C212.009 12.7553 211.919 12.533 211.919 12.2568C211.919 12.0646 211.961 11.3979 212.045 10.2568C212.105 9.47598 212.135 8.86337 212.135 8.41893C212.135 7.3979 211.991 6.64715 211.703 6.16667C211.414 5.67418 210.97 5.42793 210.369 5.42793C209.937 5.42793 209.486 5.56006 209.018 5.82433C208.562 6.08859 208.129 6.42493 207.721 6.83334L207.757 9.3919L207.775 12.2568C207.775 12.533 207.685 12.7553 207.504 12.9234C207.324 13.0796 207.114 13.1577 206.874 13.1577Z" fill="black"/>
<path d="M201.714 12.2928C201.69 11.3919 201.69 10.0105 201.714 8.14864C201.75 6.28677 201.768 5.06755 201.768 4.49097C201.768 4.23872 201.852 4.02851 202.02 3.86034C202.2 3.68016 202.417 3.59007 202.669 3.59007C202.921 3.59007 203.131 3.68016 203.299 3.86034C203.48 4.02851 203.57 4.23872 203.57 4.49097C203.57 5.06755 203.552 6.28077 203.516 8.13062C203.492 9.98047 203.492 11.3559 203.516 12.2568C203.516 12.509 203.432 12.7252 203.263 12.9054C203.095 13.0856 202.885 13.1757 202.633 13.1757C202.381 13.1757 202.164 13.0916 201.984 12.9234C201.804 12.7553 201.714 12.545 201.714 12.2928ZM203.39 0.472948C203.594 0.677153 203.696 0.929405 203.696 1.22971C203.696 1.53001 203.594 1.78226 203.39 1.98647C203.185 2.19067 202.933 2.29277 202.633 2.29277C202.333 2.29277 202.08 2.19067 201.876 1.98647C201.672 1.78226 201.57 1.53001 201.57 1.22971C201.57 0.929405 201.672 0.677153 201.876 0.472948C202.08 0.268744 202.333 0.166642 202.633 0.166642C202.945 0.154629 203.197 0.256731 203.39 0.472948Z" fill="black"/>
<path d="M195.387 16.8514C194.69 16.9115 194.018 16.8334 193.369 16.6172C192.732 16.401 192.204 16.0226 191.783 15.4821C191.627 15.2779 191.495 15.0256 191.387 14.7253C191.291 14.425 191.303 14.1608 191.423 13.9325C191.543 13.7163 191.717 13.5722 191.945 13.5001C192.186 13.428 192.414 13.452 192.63 13.5722C192.858 13.6923 193.008 13.8665 193.081 14.0947C193.105 14.1908 193.135 14.3169 193.171 14.4731C193.207 14.6412 193.339 14.8034 193.567 14.9596C194.108 15.1517 194.702 15.2358 195.351 15.2118C195.939 15.1878 196.39 15.0617 196.702 14.8334C197.015 14.6172 197.213 14.365 197.297 14.0767C197.417 13.6683 197.513 13.0196 197.585 12.1307C197.129 12.6112 196.438 12.8995 195.513 12.9956C194.72 13.0316 194.005 12.9235 193.369 12.6713C192.744 12.407 192.246 12.0346 191.873 11.5541C191.513 11.0737 191.249 10.5391 191.081 9.95053C190.912 9.38597 190.852 8.67726 190.9 7.8244C190.996 6.50308 191.513 5.44002 192.45 4.63521C193.495 3.80638 194.756 3.51208 196.234 3.75232C196.774 3.9325 197.201 4.14872 197.513 4.40097C197.525 3.92049 197.753 3.6262 198.198 3.51809C198.486 3.49407 198.714 3.56013 198.882 3.71629C199.063 3.87244 199.171 4.07064 199.207 4.31088C199.339 5.77635 199.417 7.56615 199.441 9.68026C199.453 10.8815 199.417 11.8845 199.333 12.6893C199.237 13.8905 198.954 14.7854 198.486 15.374C198.018 15.9746 197.549 16.3529 197.081 16.5091C196.612 16.6773 196.048 16.7914 195.387 16.8514ZM195.387 11.1577C195.831 11.1698 196.174 11.1157 196.414 10.9956C197.111 10.7794 197.513 10.2088 197.621 9.28387C197.681 8.57516 197.651 7.89648 197.531 7.24783C197.447 6.83942 197.201 6.48506 196.792 6.18476C196.552 5.99257 196.246 5.86644 195.873 5.80638C194.912 5.63821 194.174 5.78236 193.657 6.23882C193.165 6.63521 192.882 7.2178 192.81 7.98657C192.75 8.99558 192.948 9.78237 193.405 10.3469C193.873 10.8995 194.534 11.1698 195.387 11.1577Z" fill="black"/>
<path d="M182.081 13.1577C181.841 13.1577 181.631 13.0796 181.451 12.9234C181.271 12.7553 181.18 12.533 181.18 12.2568C181.18 11.3078 181.174 10.491 181.162 9.80632C181.138 7.76427 181.126 5.9925 181.126 4.49099C181.126 4.21471 181.211 3.9985 181.379 3.84234C181.547 3.68618 181.751 3.60811 181.991 3.60811C182.244 3.60811 182.46 3.69219 182.64 3.86036C182.832 4.01652 182.928 4.23874 182.928 4.52703V5.08559C183.673 4.11261 184.652 3.62612 185.865 3.62612C186.91 3.62612 187.709 3.99249 188.262 4.72523C188.826 5.45796 189.108 6.44295 189.108 7.68019C189.108 9.04956 189.09 9.95046 189.054 10.3829L188.964 11.5901L188.91 12.3649C188.886 12.6051 188.79 12.7973 188.622 12.9415C188.454 13.0856 188.256 13.1577 188.027 13.1577C187.787 13.1577 187.577 13.0796 187.397 12.9234C187.217 12.7553 187.126 12.533 187.126 12.2568C187.126 12.0646 187.168 11.3979 187.253 10.2568C187.313 9.47598 187.343 8.86337 187.343 8.41893C187.343 7.3979 187.199 6.64715 186.91 6.16667C186.622 5.67418 186.177 5.42793 185.577 5.42793C185.144 5.42793 184.694 5.56006 184.226 5.82433C183.769 6.08859 183.337 6.42493 182.928 6.83334L182.964 9.3919L182.982 12.2568C182.982 12.533 182.892 12.7553 182.712 12.9234C182.532 13.0796 182.322 13.1577 182.081 13.1577Z" fill="black"/>
<path d="M178.348 13.0855C176.727 13.1095 174.174 13.0915 170.691 13.0314C170.451 13.0314 170.24 12.9413 170.06 12.7611C169.892 12.581 169.808 12.3707 169.808 12.1305C169.736 11.9864 169.7 11.8362 169.7 11.68C169.724 10.8632 169.736 9.68605 169.736 8.14851C169.736 6.61097 169.742 5.56592 169.754 5.01337C169.754 4.80917 169.748 4.45481 169.736 3.9503C169.724 3.43379 169.724 2.95931 169.736 2.52688C169.748 2.08243 169.784 1.66802 169.844 1.28363C169.868 1.11547 169.94 0.965315 170.06 0.833183C170.18 0.70105 170.324 0.610959 170.493 0.562911C170.649 0.418767 170.841 0.340689 171.069 0.328677C171.958 0.304653 173.225 0.286635 174.871 0.274623C176.529 0.262611 177.658 0.256605 178.258 0.256605C178.511 0.256605 178.721 0.346695 178.889 0.526875C179.069 0.695044 179.159 0.905255 179.159 1.15751C179.159 1.40976 179.069 1.62598 178.889 1.80616C178.721 1.97432 178.511 2.05841 178.258 2.05841C177.622 2.05841 176.547 2.06442 175.033 2.07643C173.532 2.08844 172.372 2.10045 171.556 2.11246C171.52 2.28063 171.508 2.7431 171.52 3.49985C171.544 4.2446 171.556 4.76112 171.556 5.04941V5.78815C172.144 5.75211 172.769 5.73409 173.429 5.73409C174.102 5.73409 174.859 5.7401 175.7 5.75211C176.553 5.76412 177.183 5.77013 177.592 5.77013C177.844 5.77013 178.054 5.86022 178.222 6.0404C178.402 6.20857 178.493 6.41878 178.493 6.67103C178.493 6.92328 178.402 7.1395 178.222 7.31968C178.054 7.48785 177.844 7.57193 177.592 7.57193C177.171 7.57193 176.535 7.56593 175.682 7.55391C174.841 7.5419 174.09 7.5359 173.429 7.5359C172.769 7.5359 172.138 7.55392 171.538 7.58995C171.538 9.29566 171.532 10.5149 171.52 11.2476C174.451 11.2957 176.715 11.3077 178.312 11.2837C178.565 11.2837 178.781 11.3677 178.961 11.5359C179.141 11.7041 179.231 11.9143 179.231 12.1665C179.231 12.4188 179.147 12.635 178.979 12.8152C178.811 12.9954 178.601 13.0855 178.348 13.0855Z" fill="black"/>
<path d="M161.145 13.1575C160.953 13.1575 160.779 13.1035 160.623 12.9954C160.467 12.8873 160.358 12.6831 160.298 12.3828C159.782 12.7551 159.241 12.9954 158.677 13.1035C157.896 13.2476 157.181 13.2056 156.533 12.9773C155.884 12.7491 155.337 12.3707 154.893 11.8422C154.088 10.9053 153.692 9.71608 153.704 8.27464C153.716 6.97734 154.136 5.86022 154.965 4.92328C155.962 3.80616 157.271 3.39175 158.893 3.68003C159.446 3.77613 159.866 3.90226 160.154 4.05841L160.118 1.17553C160.118 0.923272 160.202 0.707056 160.37 0.526875C160.551 0.346695 160.761 0.256605 161.001 0.256605C161.253 0.256605 161.47 0.346695 161.65 0.526875C161.83 0.695044 161.92 0.899248 161.92 1.13949C162.004 6.61698 162.046 10.3227 162.046 12.2566C162.046 12.5089 161.956 12.7251 161.776 12.9053C161.608 13.0734 161.398 13.1575 161.145 13.1575ZM158.352 11.3377C158.581 11.2897 158.821 11.2056 159.073 11.0855C159.325 10.9653 159.5 10.8692 159.596 10.7972C159.704 10.7131 159.782 10.641 159.83 10.5809C159.89 10.5209 159.956 10.4548 160.028 10.3827C160.1 10.2987 160.166 10.1725 160.226 10.0044C160.226 8.47884 160.214 7.26563 160.19 6.36472C160.178 6.36472 160.166 6.35872 160.154 6.34671C159.65 5.91427 159.398 5.69205 159.398 5.68004C159.265 5.59595 158.989 5.51788 158.569 5.4458C157.608 5.27763 156.857 5.50586 156.316 6.13049C155.776 6.71908 155.506 7.43379 155.506 8.27464C155.494 9.27164 155.746 10.0764 156.262 10.6891C156.779 11.2897 157.476 11.5059 158.352 11.3377Z" fill="black"/>
<path d="M144.849 13.1577C144.609 13.1577 144.398 13.0796 144.218 12.9234C144.038 12.7553 143.948 12.533 143.948 12.2568C143.948 11.3078 143.942 10.491 143.93 9.80632C143.906 7.76427 143.894 5.9925 143.894 4.49099C143.894 4.21471 143.978 3.9985 144.146 3.84234C144.314 3.68618 144.518 3.60811 144.759 3.60811C145.011 3.60811 145.227 3.69219 145.407 3.86036C145.6 4.01652 145.696 4.23874 145.696 4.52703V5.08559C146.44 4.11261 147.419 3.62612 148.633 3.62612C149.678 3.62612 150.476 3.99249 151.029 4.72523C151.594 5.45796 151.876 6.44295 151.876 7.68019C151.876 9.04956 151.858 9.95046 151.822 10.3829L151.732 11.5901L151.678 12.3649C151.654 12.6051 151.557 12.7973 151.389 12.9415C151.221 13.0856 151.023 13.1577 150.795 13.1577C150.554 13.1577 150.344 13.0796 150.164 12.9234C149.984 12.7553 149.894 12.533 149.894 12.2568C149.894 12.0646 149.936 11.3979 150.02 10.2568C150.08 9.47598 150.11 8.86337 150.11 8.41893C150.11 7.3979 149.966 6.64715 149.678 6.16667C149.389 5.67418 148.945 5.42793 148.344 5.42793C147.912 5.42793 147.461 5.56006 146.993 5.82433C146.536 6.08859 146.104 6.42493 145.696 6.83334L145.732 9.3919L145.75 12.2568C145.75 12.533 145.66 12.7553 145.479 12.9234C145.299 13.0796 145.089 13.1577 144.849 13.1577Z" fill="black"/>
<path d="M137.664 13.2476C136.775 13.1875 136 13.0073 135.339 12.707C134.679 12.4067 134.174 12.0284 133.826 11.5719C133.477 11.1154 133.225 10.695 133.069 10.3106C132.913 9.92625 132.817 9.54787 132.781 9.17549C132.745 8.79111 132.763 8.29862 132.835 7.69801C132.919 7.19351 133.093 6.69501 133.357 6.20252C133.634 5.71002 133.994 5.27158 134.438 4.8872C134.895 4.4908 135.441 4.1905 136.078 3.9863C136.715 3.77008 137.393 3.70401 138.114 3.7881C138.811 3.87218 139.405 4.06438 139.898 4.36468C140.39 4.65296 140.811 5.02534 141.159 5.48179C141.459 5.86618 141.64 6.15447 141.7 6.34666C141.772 6.53885 141.832 6.71903 141.88 6.8872C141.94 7.05537 141.988 7.19952 142.024 7.31964C142.06 7.43976 142.09 7.56588 142.114 7.69801C142.15 7.81813 142.174 7.96228 142.186 8.13045C142.198 8.35868 142.156 8.56889 142.06 8.76108C141.964 8.95327 141.82 9.10342 141.628 9.21153C141.471 9.27159 141.303 9.30162 141.123 9.30162L138.042 9.35568C135.88 9.36769 134.799 9.39171 134.799 9.42775H134.745C134.901 10.0404 135.225 10.5208 135.718 10.8692C136.222 11.2175 136.907 11.4217 137.772 11.4818C138.24 11.5058 138.631 11.4818 138.943 11.4097C139.291 11.3136 139.544 11.2296 139.7 11.1575C139.856 11.0734 140.048 10.9653 140.276 10.8332C140.505 10.7491 140.733 10.7611 140.961 10.8692C141.189 10.9773 141.345 11.1455 141.429 11.3737C141.514 11.6019 141.501 11.8241 141.393 12.0404C141.297 12.2566 141.141 12.4248 140.925 12.5449C140.733 12.653 140.535 12.7491 140.33 12.8332C140.126 12.9052 139.826 12.9953 139.429 13.1034C139.033 13.2115 138.444 13.2596 137.664 13.2476ZM134.781 7.66198C135.477 7.62594 137.285 7.58991 140.204 7.55387C140.096 7.19351 139.922 6.85117 139.682 6.52684C139.201 5.97429 138.607 5.65597 137.898 5.57188C137.153 5.47579 136.498 5.63795 135.934 6.05837C135.369 6.46678 134.985 7.00132 134.781 7.66198Z" fill="black"/>
<path d="M130.855 13.1038C130.783 13.0798 130.633 13.0438 130.405 12.9957C130.188 12.9477 129.996 12.8936 129.828 12.8336C129.672 12.7735 129.486 12.6894 129.27 12.5813C129.065 12.4612 128.879 12.305 128.711 12.1129C128.543 11.9086 128.399 11.6684 128.279 11.3921C128.146 11.0678 128.062 10.4312 128.026 9.48222C127.99 8.74949 127.984 7.80654 128.008 6.65339C128.008 6.43717 128.014 6.07681 128.026 5.5723L127.882 5.59032C127.63 5.61434 127.408 5.54828 127.215 5.39212C127.023 5.23597 126.909 5.03777 126.873 4.79753C126.849 4.54527 126.915 4.32305 127.071 4.13086C127.227 3.93867 127.426 3.82455 127.666 3.78851L128.08 3.75248C128.092 3.11584 128.11 2.4732 128.134 1.82455C128.146 1.57229 128.242 1.36208 128.423 1.19392C128.603 1.02575 128.819 0.947669 129.071 0.959681C129.324 0.971693 129.534 1.06779 129.702 1.24797C129.87 1.42815 129.948 1.64437 129.936 1.89662L129.882 3.60833L130.477 3.5723C130.729 3.56029 130.945 3.63236 131.125 3.78851C131.318 3.94467 131.42 4.14888 131.432 4.40113C131.456 4.65338 131.39 4.8756 131.233 5.0678C131.077 5.24798 130.873 5.35008 130.621 5.3741L129.828 5.41014C129.816 5.98672 129.81 6.40714 129.81 6.6714C129.786 7.80053 129.792 8.71946 129.828 9.42816C129.852 10.1489 129.888 10.5633 129.936 10.6714C129.984 10.7795 130.02 10.8576 130.044 10.9056C130.068 10.9417 130.11 10.9837 130.17 11.0318C130.242 11.0678 130.315 11.0918 130.387 11.1038C130.459 11.1159 130.591 11.1519 130.783 11.212C130.987 11.26 131.203 11.3261 131.432 11.4101C131.66 11.4822 131.828 11.6324 131.936 11.8606C132.056 12.0768 132.074 12.305 131.99 12.5453C131.918 12.7735 131.768 12.9477 131.54 13.0678C131.324 13.1759 131.095 13.1879 130.855 13.1038Z" fill="black"/>
<path d="M118.649 13.1577C118.408 13.1577 118.198 13.0796 118.018 12.9234C117.838 12.7553 117.748 12.533 117.748 12.2568C117.748 11.3078 117.742 10.491 117.73 9.80632C117.706 7.76427 117.694 5.9925 117.694 4.49099C117.694 4.21471 117.778 3.9985 117.946 3.84234C118.114 3.68618 118.318 3.60811 118.559 3.60811C118.811 3.60811 119.027 3.69219 119.207 3.86036C119.399 4.01652 119.496 4.23874 119.496 4.52703V5.08559C120.24 4.11261 121.219 3.62612 122.432 3.62612C123.478 3.62612 124.276 3.99249 124.829 4.72523C125.393 5.45796 125.676 6.44295 125.676 7.68019C125.676 9.04956 125.658 9.95046 125.622 10.3829L125.532 11.5901L125.478 12.3649C125.454 12.6051 125.357 12.7973 125.189 12.9415C125.021 13.0856 124.823 13.1577 124.595 13.1577C124.354 13.1577 124.144 13.0796 123.964 12.9234C123.784 12.7553 123.694 12.533 123.694 12.2568C123.694 12.0646 123.736 11.3979 123.82 10.2568C123.88 9.47598 123.91 8.86337 123.91 8.41893C123.91 7.3979 123.766 6.64715 123.478 6.16667C123.189 5.67418 122.745 5.42793 122.144 5.42793C121.712 5.42793 121.261 5.56006 120.793 5.82433C120.336 6.08859 119.904 6.42493 119.496 6.83334L119.532 9.3919L119.55 12.2568C119.55 12.533 119.46 12.7553 119.279 12.9234C119.099 13.0796 118.889 13.1577 118.649 13.1577Z" fill="black"/>
<path d="M112.354 13.0314C110.768 13.4158 109.501 13.0975 108.552 12.0765C107.795 11.2957 107.327 10.2927 107.147 9.06744C107.015 8.10648 107.129 7.19357 107.489 6.3287C107.922 5.22359 108.606 4.40677 109.543 3.87824C109.735 3.77014 109.976 3.69206 110.264 3.64401C110.276 3.64401 110.36 3.638 110.516 3.62599C110.576 3.61398 110.624 3.60197 110.66 3.58996C110.84 3.55392 111.021 3.57194 111.201 3.64401C111.249 3.64401 111.363 3.65002 111.543 3.66203C111.723 3.66203 111.843 3.66803 111.903 3.68005C111.964 3.68005 112.066 3.69206 112.21 3.71608C112.366 3.72809 112.492 3.74611 112.588 3.77014L112.931 3.89626C113.075 3.94431 113.213 4.00437 113.345 4.07644C113.477 4.14852 113.621 4.2326 113.777 4.3287C114.558 4.85723 115.099 5.60197 115.399 6.56293C115.699 7.51188 115.777 8.28065 115.633 8.86924C115.525 9.51789 115.333 10.1245 115.057 10.6891C114.78 11.2416 114.396 11.7341 113.903 12.1665C113.423 12.599 112.906 12.8873 112.354 13.0314ZM111.795 11.1575C112.312 11.0855 112.75 10.8212 113.111 10.3647C113.483 9.89627 113.723 9.40378 113.831 8.88726C113.952 8.37074 113.909 7.80618 113.705 7.19357C113.513 6.56894 113.201 6.11849 112.768 5.84221C112.636 5.74612 112.528 5.68005 112.444 5.64401C112.36 5.59596 112.258 5.55993 112.138 5.53591C112.03 5.49987 111.94 5.48185 111.867 5.48185C111.807 5.48185 111.669 5.47585 111.453 5.46383C111.237 5.45182 111.045 5.43981 110.876 5.4278C110.84 5.4278 110.798 5.42179 110.75 5.40978C110.618 5.42179 110.546 5.4278 110.534 5.4278L110.408 5.46383C109.879 5.75212 109.471 6.21459 109.183 6.85122C108.906 7.47585 108.828 8.1245 108.949 8.79717C109.081 9.61399 109.375 10.2326 109.831 10.653C110.324 11.1095 110.979 11.2777 111.795 11.1575Z" fill="black"/>
<path d="M102.249 13.1579C102.009 13.1579 101.799 13.0798 101.619 12.9237C101.439 12.7555 101.349 12.5333 101.349 12.257L101.313 8.58131C101.301 7.75248 101.294 6.71945 101.294 5.48221V4.41914C101.294 4.14286 101.379 3.92665 101.547 3.77049C101.715 3.61434 101.919 3.53626 102.159 3.53626C102.412 3.53626 102.628 3.62034 102.808 3.78851C103 3.94467 103.096 4.16689 103.096 4.45518V4.99572C103.228 4.70743 103.475 4.46118 103.835 4.25698C104.328 3.95668 104.868 3.80653 105.457 3.80653C105.901 3.80653 106.243 3.8786 106.484 4.02274C106.724 4.16689 106.844 4.42515 106.844 4.79752C106.844 5.03776 106.772 5.24197 106.628 5.41014C106.484 5.56629 106.273 5.64437 105.997 5.64437C104.988 5.64437 104.291 5.78251 103.907 6.05878C103.691 6.20293 103.499 6.3771 103.331 6.58131C103.174 6.78551 103.096 6.98371 103.096 7.1759L103.132 9.42816L103.15 12.257C103.15 12.5333 103.06 12.7555 102.88 12.9237C102.7 13.0798 102.49 13.1579 102.249 13.1579Z" fill="black"/>
<path d="M91.1377 12.2929C91.1377 11.8244 91.1437 10.7433 91.1557 9.04962C91.1797 7.35593 91.1797 5.96854 91.1557 4.88745C91.1437 3.79436 91.0956 2.68325 91.0115 1.55412C91.0115 1.48204 91.0176 1.40997 91.0296 1.3379C91.0176 1.28985 91.0115 1.24781 91.0115 1.21177C91.0115 0.95952 91.0956 0.743303 91.2638 0.563122C91.432 0.382942 91.6422 0.292852 91.8944 0.292852C95.2338 0.232792 97.6782 0.232792 99.2278 0.292852C99.48 0.304864 99.6902 0.40096 99.8584 0.581141C100.027 0.761322 100.105 0.977538 100.093 1.22979C100.081 1.48204 99.9845 1.69225 99.8044 1.86042C99.6242 2.02859 99.408 2.10667 99.1557 2.09466C97.6422 2.0346 95.5401 2.02859 92.8494 2.07664C92.9215 3.20577 92.9635 4.44902 92.9755 5.80638C93.7683 5.80638 95.5521 5.78836 98.3269 5.75232C98.5791 5.75232 98.7953 5.84241 98.9755 6.02259C99.1557 6.19076 99.2458 6.40097 99.2458 6.65322C99.2458 6.89346 99.1557 7.10368 98.9755 7.28386C98.8074 7.46404 98.6031 7.55413 98.3629 7.55413C95.5761 7.59016 93.7803 7.60818 92.9755 7.60818C92.9755 8.00458 92.9695 8.74332 92.9575 9.8244C92.9455 10.8935 92.9395 11.7163 92.9395 12.2929C92.9395 12.5451 92.8494 12.7613 92.6692 12.9415C92.501 13.1097 92.2908 13.1938 92.0386 13.1938C91.7863 13.1938 91.5701 13.1097 91.3899 12.9415C91.2218 12.7613 91.1377 12.5451 91.1377 12.2929Z" fill="black"/>
<path d="M82.4571 13.1575C82.2649 13.1575 82.0907 13.1035 81.9345 12.9954C81.7784 12.8873 81.6703 12.6831 81.6102 12.3828C81.0937 12.7551 80.5531 12.9954 79.9886 13.1035C79.2078 13.2476 78.4931 13.2056 77.8444 12.9773C77.1958 12.7491 76.6492 12.3707 76.2048 11.8422C75.4 10.9053 75.0036 9.71608 75.0156 8.27464C75.0276 6.97734 75.448 5.86022 76.2769 4.92328C77.2739 3.80616 78.5832 3.39175 80.2048 3.68003C80.7574 3.77613 81.1778 3.90226 81.4661 4.05841L81.43 1.17553C81.43 0.923272 81.5141 0.707056 81.6823 0.526875C81.8625 0.346695 82.0727 0.256605 82.3129 0.256605C82.5652 0.256605 82.7814 0.346695 82.9616 0.526875C83.1417 0.695044 83.2318 0.899248 83.2318 1.13949C83.3159 6.61698 83.358 10.3227 83.358 12.2566C83.358 12.5089 83.2679 12.7251 83.0877 12.9053C82.9195 13.0734 82.7093 13.1575 82.4571 13.1575ZM79.6643 11.3377C79.8925 11.2897 80.1327 11.2056 80.385 11.0855C80.6372 10.9653 80.8114 10.8692 80.9075 10.7972C81.0156 10.7131 81.0937 10.641 81.1417 10.5809C81.2018 10.5209 81.2679 10.4548 81.3399 10.3827C81.412 10.2987 81.4781 10.1725 81.5381 10.0044C81.5381 8.47884 81.5261 7.26563 81.5021 6.36472C81.4901 6.36472 81.4781 6.35872 81.4661 6.34671C80.9616 5.91427 80.7093 5.69205 80.7093 5.68004C80.5772 5.59595 80.3009 5.51788 79.8805 5.4458C78.9195 5.27763 78.1688 5.50586 77.6282 6.13049C77.0877 6.71908 76.8174 7.43379 76.8174 8.27464C76.8054 9.27164 77.0576 10.0764 77.5742 10.6891C78.0907 11.2897 78.7874 11.5059 79.6643 11.3377Z" fill="black"/>
<path d="M66.1606 13.1577C65.9203 13.1577 65.7101 13.0796 65.5299 12.9234C65.3498 12.7553 65.2597 12.533 65.2597 12.2568C65.2597 11.3078 65.2537 10.491 65.2416 9.80632C65.2176 7.76427 65.2056 5.9925 65.2056 4.49099C65.2056 4.21471 65.2897 3.9985 65.4579 3.84234C65.626 3.68618 65.8302 3.60811 66.0705 3.60811C66.3227 3.60811 66.5389 3.69219 66.7191 3.86036C66.9113 4.01652 67.0074 4.23874 67.0074 4.52703V5.08559C67.7522 4.11261 68.7311 3.62612 69.9444 3.62612C70.9894 3.62612 71.7882 3.99249 72.3408 4.72523C72.9053 5.45796 73.1876 6.44295 73.1876 7.68019C73.1876 9.04956 73.1696 9.95046 73.1335 10.3829L73.0435 11.5901L72.9894 12.3649C72.9654 12.6051 72.8693 12.7973 72.7011 12.9415C72.5329 13.0856 72.3348 13.1577 72.1065 13.1577C71.8663 13.1577 71.6561 13.0796 71.4759 12.9234C71.2957 12.7553 71.2056 12.533 71.2056 12.2568C71.2056 12.0646 71.2477 11.3979 71.3317 10.2568C71.3918 9.47598 71.4218 8.86337 71.4218 8.41893C71.4218 7.3979 71.2777 6.64715 70.9894 6.16667C70.7011 5.67418 70.2567 5.42793 69.6561 5.42793C69.2236 5.42793 68.7732 5.56006 68.3047 5.82433C67.8483 6.08859 67.4158 6.42493 67.0074 6.83334L67.0434 9.3919L67.0615 12.2568C67.0615 12.533 66.9714 12.7553 66.7912 12.9234C66.611 13.0796 66.4008 13.1577 66.1606 13.1577Z" fill="black"/>
<path d="M60.0091 12.8696C59.5767 13.0377 59.0842 13.1338 58.5316 13.1579C57.9911 13.1819 57.4866 13.1218 57.0181 12.9777C56.5497 12.8215 56.1352 12.5873 55.7749 12.275C55.1503 11.7585 54.7478 11.1158 54.5677 10.3471C54.3875 9.57828 54.3815 8.88759 54.5497 8.27498C54.7178 7.66236 54.9701 7.06777 55.3064 6.49119C55.6548 5.9026 56.0271 5.41011 56.4235 5.01371C56.8319 4.6053 57.3004 4.26296 57.8289 3.98668C58.3575 3.7104 58.91 3.57827 59.4866 3.59028C60.0632 3.59028 60.6698 3.74644 61.3064 4.05875C61.4025 4.1068 61.5046 4.17887 61.6127 4.27497C61.7328 4.37107 61.835 4.45515 61.919 4.52722L62.1533 4.76146C62.2253 4.83353 62.2614 4.87557 62.2614 4.88758C62.4536 5.05575 62.5557 5.27197 62.5677 5.53623C62.7238 6.25696 62.8259 7.01371 62.874 7.80651C62.922 8.5993 62.934 9.34405 62.91 10.0407C62.898 10.7374 62.91 11.4762 62.9461 12.257C62.9581 12.4972 62.88 12.7074 62.7118 12.8876C62.5437 13.0678 62.3334 13.1639 62.0812 13.1759C61.8289 13.1879 61.6127 13.1098 61.4325 12.9417C61.2524 12.7735 61.1563 12.5693 61.1443 12.329V12.0588C60.7839 12.4311 60.4055 12.7014 60.0091 12.8696ZM59.1983 11.248C59.3785 11.1999 59.5226 11.1519 59.6307 11.1038C59.7389 11.0558 59.871 10.9837 60.0271 10.8876C60.1953 10.7915 60.3695 10.6714 60.5497 10.5272C60.7298 10.3831 60.892 10.2029 61.0362 9.98669C61.0602 9.96267 61.0902 9.93864 61.1262 9.91462C61.1262 8.293 61.0241 6.98969 60.8199 6.0047C60.7839 5.95666 60.7419 5.91461 60.6938 5.87858C60.6578 5.83053 60.6277 5.79449 60.6037 5.77047C60.5917 5.74644 60.5677 5.72843 60.5316 5.71641C60.5076 5.69239 60.4776 5.66837 60.4416 5.64434C59.865 5.33203 59.2584 5.32602 58.6217 5.62632C57.9851 5.91461 57.4265 6.46116 56.9461 7.26597C56.4656 8.08278 56.2253 8.7975 56.2253 9.41011C56.2373 10.0107 56.4716 10.5092 56.928 10.9056C57.2043 11.1338 57.5467 11.278 57.9551 11.338C58.3635 11.3981 58.7779 11.3681 59.1983 11.248Z" fill="black"/>
<path d="M40.4607 12.7611C40.3165 12.9653 40.1183 13.0915 39.8661 13.1395C39.6258 13.1756 39.4036 13.1215 39.1994 12.9774C38.9952 12.8332 38.8691 12.641 38.821 12.4008C38.785 12.1485 38.839 11.9203 38.9832 11.7161L42.767 6.56293C41.9381 5.34971 40.8931 3.71007 39.6318 1.644C39.5117 1.42778 39.4757 1.19955 39.5237 0.959313C39.5838 0.719072 39.7219 0.538892 39.9381 0.418772C40.1544 0.286639 40.3826 0.250603 40.6228 0.310663C40.8631 0.358711 41.0493 0.490843 41.1814 0.70706C42.4426 2.76112 43.3496 4.20256 43.9021 5.03139L47.0913 0.671024C47.2355 0.478831 47.4276 0.364717 47.6679 0.328682C47.9201 0.280633 48.1424 0.334687 48.3345 0.490844C48.5388 0.634988 48.6589 0.833186 48.6949 1.08544C48.743 1.32568 48.6889 1.5479 48.5327 1.75211L45.0012 6.58095L45.3616 7.01338C45.77 7.48185 46.0643 7.8362 46.2445 8.07644C47.1694 9.33771 47.9922 10.587 48.7129 11.8242C48.8451 12.0404 48.8751 12.2686 48.803 12.5089C48.743 12.7491 48.6048 12.9353 48.3886 13.0674C48.1724 13.1876 47.9442 13.2176 47.7039 13.1575C47.4637 13.0855 47.2835 12.9413 47.1634 12.7251C46.4547 11.5119 45.6679 10.3227 44.803 9.15753C44.6829 9.00137 44.4186 8.68305 44.0102 8.20257L43.9021 8.07644L40.4607 12.7611Z" fill="black"/>
<path d="M27.6963 11.0498C27.3479 10.5333 27.1137 9.76455 26.9936 8.74353C26.9215 7.98677 26.9035 7.09187 26.9395 6.05884C26.9635 5.38617 27.0116 4.47926 27.0837 3.33811C27.1677 2.19697 27.2158 1.45823 27.2278 1.12189C27.2278 0.869641 27.3179 0.65943 27.4981 0.491262C27.6783 0.323093 27.8945 0.239009 28.1467 0.239009C28.399 0.239009 28.6092 0.329099 28.7774 0.509279C28.9455 0.68946 29.0296 0.905677 29.0296 1.15793C29.0176 1.48225 28.9696 2.22099 28.8855 3.37415C28.8134 4.5273 28.7653 5.44022 28.7413 6.11289C28.7053 7.07386 28.7233 7.88467 28.7954 8.54533C28.8674 9.27806 28.9936 9.77656 29.1738 10.0408C29.5942 10.6414 30.1647 11.0438 30.8855 11.248C31.6062 11.4402 32.3209 11.4102 33.0296 11.1579C33.7503 10.9057 34.3089 10.4733 34.7053 9.86065C35.3539 8.89968 35.6963 7.58437 35.7323 5.91469C35.7443 5.31409 35.7263 4.5213 35.6783 3.53631C35.6062 2.26304 35.5642 1.47024 35.5521 1.15793C35.5521 0.905677 35.6362 0.68946 35.8044 0.509279C35.9726 0.329099 36.1828 0.239009 36.435 0.239009C36.6873 0.239009 36.9035 0.323093 37.0837 0.491262C37.2639 0.65943 37.3539 0.869641 37.3539 1.12189C37.366 1.41018 37.402 2.17895 37.4621 3.4282C37.5221 4.46124 37.5461 5.30809 37.5341 5.96875C37.4861 7.97476 37.0476 9.60839 36.2188 10.8697C35.7624 11.5543 35.1497 12.0949 34.381 12.4913C33.6242 12.8877 32.8434 13.1099 32.0386 13.158C31.2338 13.206 30.435 13.0558 29.6422 12.7075C28.8494 12.3471 28.2008 11.7946 27.6963 11.0498Z" fill="black"/>
<path d="M20.4323 12.7973C20.3603 13.0255 20.2101 13.1937 19.9819 13.3018C19.7657 13.4219 19.5374 13.44 19.2972 13.3559C19.069 13.2838 18.8948 13.1397 18.7747 12.9234C18.6666 12.6952 18.6545 12.461 18.7386 12.2207C19.3993 10.1547 20.7567 6.29881 22.8107 0.653155C22.8828 0.412914 23.0269 0.232733 23.2431 0.112613C23.4594 -0.00750735 23.6876 -0.0315316 23.9278 0.0405404C24.1681 0.112612 24.3482 0.256757 24.4684 0.472974C24.5885 0.68919 24.6125 0.917419 24.5404 1.15766C22.7026 6.15467 21.3332 10.0346 20.4323 12.7973Z" fill="black"/>
<path d="M13.413 13.1936C13.1608 13.2056 12.9446 13.1275 12.7644 12.9593C12.5842 12.7791 12.4881 12.5689 12.4761 12.3287C12.4641 12.0764 12.5422 11.8602 12.7103 11.68C12.8905 11.4999 13.1007 11.4038 13.341 11.3918L13.7374 11.3737C13.7374 7.638 13.7254 4.53289 13.7013 2.05841H13.413C13.1608 2.05841 12.9506 1.96832 12.7824 1.78814C12.6142 1.60796 12.5302 1.39174 12.5302 1.13949C12.5302 0.887236 12.6202 0.677026 12.8004 0.508857C12.9806 0.340689 13.1968 0.256605 13.4491 0.256605C14.0617 0.268617 14.8064 0.280629 15.6833 0.292641C15.9236 0.292641 16.1278 0.382731 16.2959 0.562911C16.4761 0.743092 16.5662 0.959309 16.5662 1.21156C16.5662 1.4518 16.4761 1.66201 16.2959 1.84219C16.1157 2.01036 15.8995 2.09445 15.6473 2.09445H15.5031C15.5272 4.55691 15.5392 7.64401 15.5392 11.3557H15.8995C16.1518 11.3557 16.362 11.4458 16.5302 11.626C16.7103 11.7942 16.8004 12.0044 16.8004 12.2566C16.8004 12.5089 16.7103 12.7251 16.5302 12.9053C16.362 13.0734 16.1518 13.1575 15.8995 13.1575C14.9746 13.1575 14.1458 13.1695 13.413 13.1936Z" fill="black"/>
<path d="M0.774776 11.0498C0.426427 10.5333 0.192192 9.76455 0.0720722 8.74353C2.98322e-08 7.98677 -0.0180181 7.09187 0.018018 6.05884C0.0420421 5.38617 0.0900902 4.47926 0.162162 3.33811C0.246247 2.19697 0.294295 1.45823 0.306307 1.12189C0.306307 0.869641 0.396397 0.65943 0.576578 0.491262C0.756758 0.323093 0.972975 0.239009 1.22523 0.239009C1.47748 0.239009 1.68769 0.329099 1.85586 0.509279C2.02403 0.68946 2.10811 0.905677 2.10811 1.15793C2.0961 1.48225 2.04805 2.22099 1.96397 3.37415C1.8919 4.5273 1.84385 5.44022 1.81982 6.11289C1.78379 7.07386 1.80181 7.88467 1.87388 8.54533C1.94595 9.27806 2.07208 9.77656 2.25226 10.0408C2.67268 10.6414 3.24325 11.0438 3.96397 11.248C4.68469 11.4402 5.39941 11.4102 6.10812 11.1579C6.82884 10.9057 7.3874 10.4733 7.7838 9.86065C8.43245 8.89968 8.77479 7.58437 8.81083 5.91469C8.82284 5.31409 8.80482 4.5213 8.75677 3.53631C8.6847 2.26304 8.64266 1.47024 8.63065 1.15793C8.63065 0.905677 8.71473 0.68946 8.8829 0.509279C9.05107 0.329099 9.26128 0.239009 9.51353 0.239009C9.76578 0.239009 9.982 0.323093 10.1622 0.491262C10.3424 0.65943 10.4325 0.869641 10.4325 1.12189C10.4445 1.41018 10.4805 2.17895 10.5406 3.4282C10.6006 4.46124 10.6246 5.30809 10.6126 5.96875C10.5646 7.97476 10.1261 9.60839 9.29731 10.8697C8.84086 11.5543 8.22824 12.0949 7.45947 12.4913C6.70271 12.8877 5.92193 13.1099 5.11713 13.158C4.31232 13.206 3.51352 13.0558 2.72073 12.7075C1.92793 12.3471 1.27928 11.7946 0.774776 11.0498Z" fill="black"/>
</svg>
